<svg width="26" height="26" viewBox="0 0 26 26" fill="none" xmlns="http://www.w3.org/2000/svg">
<path d="M13 23.5001C18.799 23.5001 23.5 18.7991 23.5 13.0001C23.5 7.20104 18.799 2.5 13 2.5C7.20101 2.5 2.5 7.20104 2.5 13.0001C2.5 18.7991 7.20101 23.5001 13 23.5001Z" fill="#DCFCE7"/>
<path d="M12.9988 18.0107C11.4762 18.0107 10.0256 17.3538 9.0195 16.2091C8.69917 15.8449 8.7349 15.2908 9.09911 14.9704C9.46332 14.6507 10.0175 14.6865 10.3378 15.05C11.011 15.8161 11.9808 16.2555 12.9988 16.2555C14.0169 16.2555 14.9866 15.8161 15.6599 15.05C15.9796 14.6858 16.5344 14.6501 16.8986 14.9704C17.2628 15.2901 17.2985 15.8449 16.9782 16.2091C15.9714 17.3538 14.5215 18.0107 12.9988 18.0107Z" fill="#4ADE80"/>
<path d="M9.93412 12.3971C10.7051 12.3971 11.3301 11.772 11.3301 11.001C11.3301 10.23 10.7051 9.60498 9.93412 9.60498C9.16311 9.60498 8.53809 10.23 8.53809 11.001C8.53809 11.772 9.16311 12.3971 9.93412 12.3971Z" fill="#4ADE80"/>
<path d="M16.066 12.3971C16.837 12.3971 17.462 11.772 17.462 11.001C17.462 10.23 16.837 9.60498 16.066 9.60498C15.2949 9.60498 14.6699 10.23 14.6699 11.001C14.6699 11.772 15.2949 12.3971 16.066 12.3971Z" fill="#4ADE80"/>
</svg>
