<svg width="12" height="12" viewBox="0 0 12 12" fill="none" xmlns="http://www.w3.org/2000/svg">
<path d="M6 0.5C6.20404 0.5 6.38766 0.624205 6.46387 0.813477L7.75391 4.01758L11.0449 4.3125C11.2421 4.33029 11.4102 4.46282 11.4736 4.65039C11.537 4.83826 11.4833 5.04605 11.3369 5.17969L8.82031 7.47461L9.57812 10.8916C9.62185 11.0889 9.54241 11.2931 9.37695 11.4092C9.21153 11.5252 8.99283 11.5301 8.82227 11.4219L6 9.62891L3.17773 11.4219C3.00717 11.5301 2.78847 11.5252 2.62305 11.4092C2.45759 11.2931 2.37815 11.0889 2.42188 10.8916L3.17871 7.47461L0.663086 5.17969C0.516658 5.04605 0.463037 4.83826 0.526367 4.65039C0.589783 4.46282 0.757881 4.33029 0.955078 4.3125L4.24512 4.01758L5.53613 0.813477C5.61234 0.624205 5.79596 0.5 6 0.5Z" fill="#E0E0E0" stroke="white" stroke-linejoin="round"/>
</svg>
